{
.appVersion = "3260";
.formatVersion = 3;
DisplayStrings = (
"17
27
37
47
57
67
77
87
97
07"
);
date = "2024-03-27 13:36:20 +0000";
familyName = "Font Ainee";
fontMaster = (
{
id = m01;
metricValues = (
{
over = 20;
pos = 1200;
},
{
over = 20;
pos = 1000;
},
{
over = -20;
},
{
over = -20;
pos = -200;
}
);
name = Regular;
userData = {
GSExtrudeAngle = 23;
GSExtrudeOffset = 180;
};
}
);
glyphs = (
{
glyphname = A;
lastChange = "2024-03-27 13:42:59 +0000";
layers = (
{
layerId = m01;
shapes = (
{
closed = 1;
nodes = (
(81,94,o),
(98,64,o),
(140,64,cs),
(319,64,ls),
(351,64,o),
(361,83,o),
(445,443,cs),
(529,803,o),
(541,862,o),
(517,889,cs),
(493,916,o),
(445,921,o),
(320,894,cs),
(151,857,o),
(103,813,o),
(103,813,c),
(103,813,o),
(250,851,o),
(262,838,cs),
(279,819,o),
(235,717,o),
(165,433,cs)
);
},
{
closed = 1;
nodes = (
(427,869,l),
(487,843,l),
(309,84,l),
(244,84,l)
);
},
{
closed = 1;
nodes = (
(-2,117,o),
(-80,24,o),
(-80,24,c),
(-80,24,o),
(22,48,o),
(96,48,cs),
(211,48,o),
(287,-19,o),
(416,-19,cs),
(629,-19,o),
(842,101,o),
(892,196,cs),
(956,318,o),
(1006,705,o),
(1066,836,cs),
(1111,935,o),
(1208,995,o),
(1208,995,c),
(1208,995,o),
(1023,972,o),
(946,869,cs),
(893,798,o),
(763,317,o),
(745,221,cs),
(727,125,o),
(639,58,o),
(543,58,cs),
(447,58,o),
(350,117,o),
(238,117,cs)
);
},
{
pos = (471,681);
ref = .dot;
},
{
pos = (545,925);
ref = .dot;
}
);
width = 1148;
}
);
unicode = (65,97);
},
{
glyphname = B;
lastChange = "2024-03-27 13:43:08 +0000";
layers = (
{
layerId = m01;
shapes = (
{
closed = 1;
nodes = (
(392,1019,o),
(278,951,o),
(230,883,c),
(313,922,o),
(404,939,o),
(483,939,cs),
(598,939,o),
(665,893,o),
(818,893,cs),
(980,893,o),
(1092,960,o),
(1156,1059,c),
(1069,1010,o),
(959,983,o),
(838,983,cs),
(717,983,o),
(637,1019,o),
(503,1019,cs)
);
},
{
closed = 1;
nodes = (
(242,126,o),
(128,38,o),
(80,-30,c),
(163,9,o),
(254,26,o),
(333,26,cs),
(448,26,o),
(515,-20,o),
(668,-20,cs),
(807,-20,o),
(1006,69,o),
(1006,188,cs),
(1006,256,o),
(955,315,o),
(873,315,c),
(934,263,o),
(946,224,o),
(946,174,cs),
(946,116,o),
(865,90,o),
(688,90,cs),
(567,90,o),
(487,126,o),
(353,126,cs)
);
},
{
closed = 1;
nodes = (
(523,27,l),
(741,27,l),
(941,942,l),
(723,942,l)
);
},
{
closed = 1;
nodes = (
(900,924,l),
(700,49,l),
(647,49,l),
(847,924,l)
);
},
{
closed = 1;
nodes = (
(183,27,l),
(341,67,l),
(465,572,l),
(307,572,l)
);
},
{
closed = 1;
nodes = (
(250,600,o),
(181,542,o),
(154,497,c),
(216,537,o),
(278,549,o),
(431,549,cs),
(510,549,o),
(534,506,o),
(533,466,cs),
(532,426,o),
(494,379,o),
(439,327,c),
(554,404,o),
(590,451,o),
(590,542,cs),
(590,580,o),
(569,601,o),
(521,601,cs),
(473,601,o),
(453,594,o),
(425,594,cs),
(395,594,o),
(376,600,o),
(324,600,cs)
);
}
);
width = 1106;
}
);
unicode = (66,98);
},
{
glyphname = C;
lastChange = "2024-03-27 13:43:13 +0000";
layers = (
{
layerId = m01;
shapes = (
{
closed = 1;
nodes = (
(597,1020,o),
(311,986,o),
(94,803,c),
(370,911,o),
(670,955,o),
(840,955,cs),
(958,955,o),
(984,918,o),
(980,861,cs),
(975,795,o),
(824,257,o),
(782,195,cs),
(718,99,o),
(477,39,o),
(477,137,cs),
(477,197,o),
(597,254,o),
(670,279,c),
(615,330,o),
(282,244,o),
(282,76,cs),
(282,10,o),
(353,-21,o),
(427,-21,cs),
(512,-21,o),
(738,38,o),
(892,169,cs),
(1046,300,o),
(1157,492,o),
(1157,767,cs),
(1157,969,o),
(1023,1020,o),
(840,1020,cs)
);
},
{
closed = 1;
nodes = (
(348,784,o),
(188,340,o),
(40,230,c),
(226,264,o),
(299,308,o),
(353,367,cs),
(411,430,o),
(452,542,o),
(551,967,c),
(283,893,l)
);
},
{
closed = 1;
nodes = (
(403,912,l),
(344,584,o),
(302,492,o),
(223,403,c),
(302,559,o),
(372,856,o),
(347,897,c)
);
},
{
closed = 1;
nodes = (
(905,641,o),
(848,593,o),
(806,525,c),
(939,584,o),
(1038,492,o),
(1157,492,cs),
(1226,492,o),
(1280,527,o),
(1298,559,c),
(1145,542,o),
(1082,641,o),
(984,641,cs)
);
}
);
width = 1277;
}
);
unicode = (67,99);
},
{
glyphname = D;
lastChange = "2024-03-27 13:43:17 +0000";
layers = (
{
layerId = m01;
shapes = (
{
closed = 1;
nodes = (
(377,1022,o),
(157,944,o),
(102,899,c),
(170,930,o),
(258,954,o),
(315,954,cs),
(372,954,o),
(505,879,o),
(546,879,cs),
(587,879,o),
(810,954,o),
(857,954,cs),
(904,954,o),
(1000,880,o),
(1054,880,cs),
(1108,880,o),
(1414,988,o),
(1470,1037,c),
(1396,1006,o),
(1249,957,o),
(1181,957,cs),
(1113,957,o),
(1040,1021,o),
(987,1021,cs),
(934,1021,o),
(726,957,o),
(672,957,cs),
(618,957,o),
(523,1022,o),
(466,1022,cs)
);
},
{
closed = 1;
nodes = (
(162,291,l),
(321,291,l),
(520,976,l),
(361,976,l)
);
},
{
closed = 1;
nodes = (
(146,328,o),
(79,269,o),
(50,228,c),
(130,278,o),
(227,243,o),
(309,265,cs),
(421,295,o),
(595,356,o),
(595,419,cs),
(595,511,o),
(449,501,o),
(439,475,c),
(456,466,o),
(496,444,o),
(496,419,cs),
(496,385,o),
(465,328,o),
(258,328,cs)
);
},
{
closed = 1;
nodes = (
(685,29,l),
(837,29,l),
(1101,952,l),
(949,952,l)
);
},
{
closed = 1;
nodes = (
(517,96,o),
(314,35,o),
(265,-8,c),
(318,16,o),
(384,29,o),
(442,29,cs),
(500,29,o),
(576,-17,o),
(676,-17,cs),
(776,-17,o),
(930,3,o),
(962,116,cs),
(1195,934,l),
(1149,935,l),
(917,121,ls),
(900,61,o),
(849,51,o),
(762,51,cs),
(688,51,o),
(620,96,o),
(575,96,cs)
);
}
);
width = 1350;
}
);
unicode = (68,100);
},
{
glyphname = E;
lastChange = "2024-03-27 13:43:20 +0000";
layers = (
{
backgroundImage = {
imagePath = "解包/E.png";
pos = (76,-32);
scale = (25.9668,25.9668);
};
layerId = m01;
shapes = (
{
closed = 1;
nodes = (
(300,1019,o),
(148,911,o),
(139,803,c),
(197,854,o),
(282,911,o),
(389,911,cs),
(473,911,o),
(487,878,o),
(603,878,cs),
(752,878,o),
(858,955,o),
(930,955,cs),
(1003,955,o),
(1029,918,o),
(1025,861,cs),
(1020,795,o),
(869,257,o),
(827,195,cs),
(763,99,o),
(522,39,o),
(522,137,cs),
(522,197,o),
(642,254,o),
(715,279,c),
(660,330,o),
(327,244,o),
(327,76,cs),
(327,10,o),
(398,-21,o),
(472,-21,cs),
(557,-21,o),
(783,38,o),
(937,169,cs),
(1091,300,o),
(1202,492,o),
(1202,767,cs),
(1202,969,o),
(1068,1020,o),
(982,1020,cs),
(874,1020,o),
(830,992,o),
(762,992,cs),
(694,992,o),
(626,1019,o),
(481,1019,cs)
);
},
{
closed = 1;
nodes = (
(429,758,o),
(303,405,o),
(269,350,cs),
(232,290,o),
(125,230,o),
(125,230,c),
(187,201,o),
(461,242,o),
(563,397,cs),
(621,485,o),
(701,789,o),
(739,947,c),
(470,967,l)
);
},
{
closed = 1;
nodes = (
(661,896,l),
(547,507,o),
(539,436,o),
(473,423,c),
(619,896,l)
);
},
{
closed = 1;
nodes = (
(221,675,o),
(96,633,o),
(80,534,c),
(131,575,o),
(208,605,o),
(272,605,cs),
(360,605,o),
(375,559,o),
(499,559,cs),
(642,559,o),
(707,628,o),
(856,628,cs),
(949,628,o),
(984,568,o),
(1009,511,c),
(1034,596,o),
(996,705,o),
(876,705,cs),
(797,705,o),
(661,634,o),
(570,634,cs),
(479,634,o),
(446,675,o),
(342,675,c)
);
}
);
width = 1322;
}
);
unicode = (69,101);
},
{
glyphname = F;
lastChange = "2024-03-27 13:43:24 +0000";
layers = (
{
layerId = m01;
shapes = (
{
closed = 1;
nodes = (
(796,1018,o),
(653,953,o),
(569,871,c),
(569,871,o),
(691,921,o),
(785,921,cs),
(879,921,o),
(930,901,o),
(1010,901,cs),
(1188,901,o),
(1400,980,o),
(1482,1072,c),
(1482,1072,o),
(1316,996,o),
(1156,996,cs),
(1061,996,o),
(1020,1018,o),
(943,1018,c)
);
},
{
closed = 1;
nodes = (
(1010,723,o),
(881,349,o),
(852,261,cs),
(840,224,o),
(821,201,o),
(785,181,cs),
(749,161,o),
(546,71,o),
(467,71,cs),
(408,71,o),
(387,88,o),
(387,130,cs),
(387,183,o),
(433,241,o),
(485,241,c),
(349,290,o),
(177,212,o),
(177,80,cs),
(177,13,o),
(228,-19,o),
(310,-19,cs),
(485,-19,o),
(729,85,o),
(816,121,cs),
(879,148,o),
(901,187,o),
(920,243,cs),
(1156,954,l),
(1089,954,l)
);
},
{
closed = 1;
nodes = (
(1058,972,l),
(887,972,l),
(575,65,l),
(772,138,l)
);
},
{
pos = (420,520);
ref = .dot;
},
{
pos = (-30,421);
ref = .dot;
},
{
pos = (68,668);
ref = .dot;
}
);
width = 1182;
}
);
unicode = (70,102);
},
{
glyphname = G;
lastChange = "2024-03-27 13:43:33 +0000";
layers = (
{
layerId = m01;
shapes = (
{
closed = 1;
nodes = (
(129,663,o),
(159,640,o),
(187,629,c),
(164,655,o),
(153,702,o),
(172,742,cs),
(216,833,o),
(341,810,o),
(438,840,cs),
(535,870,o),
(693,956,o),
(723,1000,c),
(674,976,o),
(550,925,o),
(443,890,cs),
(336,855,o),
(129,840,o),
(129,717,c)
);
},
{
closed = 1;
nodes = (
(132,248,l),
(292,305,l),
(564,913,l),
(404,856,l)
);
},
{
closed = 1;
nodes = (
(703,1021,o),
(605,795,o),
(507,609,cs),
(373,352,o),
(292,239,o),
(-70,257,c),
(237,159,o),
(392,306,o),
(551,601,cs),
(688,855,o),
(800,876,o),
(917,876,cs),
(1019,876,o),
(1064,840,o),
(1166,840,cs),
(1293,840,o),
(1509,925,o),
(1580,1040,c),
(1509,1000,o),
(1418,949,o),
(1331,949,cs),
(1244,949,o),
(1079,1021,o),
(948,1021,c)
);
},
{
closed = 0;
nodes = (
(1122,957,l)
);
},
{
closed = 1;
nodes = (
(831,159,ls),
(804,84,o),
(690,36,o),
(592,36,cs),
(531,36,o),
(494,80,o),
(494,120,cs),
(494,179,o),
(588,215,o),
(690,187,c),
(665,257,o),
(332,239,o),
(332,84,cs),
(332,24,o),
(412,-22,o),
(506,-22,cs),
(978,-22,o),
(1410,702,o),
(1122,957,c)
);
},
{
pos = (707,380);
ref = ".T-doth";
}
);
width = 1400;
}
);
unicode = (71,103);
},
{
glyphname = H;
lastChange = "2024-03-27 13:43:36 +0000";
layers = (
{
layerId = m01;
shapes = (
{
closed = 1;
nodes = (
(378,1009,o),
(274,1005,o),
(219,946,c),
(219,946,o),
(378,958,o),
(489,958,cs),
(528,958,o),
(538,938,o),
(528,907,cs),
(517,873,o),
(414,568,o),
(397,521,cs),
(388,496,o),
(370,488,o),
(347,478,cs),
(312,464,o),
(56,354,o),
(-80,308,c),
(44,293,o),
(168,335,o),
(357,420,cs),
(410,444,o),
(449,480,o),
(466,530,cs),
(600,918,ls),
(620,977,o),
(599,1009,o),
(528,1009,cs)
);
},
{
closed = 1;
nodes = (
(111,352,l),
(325,435,l),
(513,978,l),
(344,978,l)
);
},
{
closed = 1;
nodes = (
(856,1014,o),
(742,971,o),
(651,900,c),
(742,917,o),
(866,917,o),
(1019,917,cs),
(1206,917,o),
(1353,981,o),
(1466,1078,c),
(1302,1025,o),
(1206,1014,o),
(1015,1014,c)
);
},
{
closed = 1;
nodes = (
(849,733,o),
(708,393,o),
(643,243,cs),
(598,139,o),
(474,77,o),
(246,-37,c),
(513,11,o),
(780,98,o),
(849,272,cs),
(1122,966,l),
(943,966,l)
);
},
{
closed = 1;
nodes = (
(808,822,o),
(444,707,o),
(286,559,c),
(528,672,o),
(806,733,o),
(887,612,c),
(951,764,l)
);
},
{
closed = 1;
nodes = (
(527,539,o),
(394,503,o),
(225,412,c),
(303,432,o),
(396,436,o),
(483,436,cs),
(563,436,o),
(654,408,o),
(776,408,cs),
(898,408,o),
(1082,454,o),
(1196,547,c),
(1134,521,o),
(1089,513,o),
(973,513,cs),
(856,513,o),
(803,539,o),
(652,539,c)
);
}
);
width = 1166;
}
);
unicode = (72,104);
},
{
glyphname = I;
lastChange = "2024-03-27 13:43:39 +0000";
layers = (
{
layerId = m01;
shapes = (
{
closed = 1;
nodes = (
(552,693,o),
(352,63,o),
(323,33,cs),
(294,3,o),
(189,-24,o),
(79,-24,cs),
(17,-24,o),
(-33,14,o),
(-33,82,cs),
(-33,167,o),
(46,245,o),
(46,245,c),
(46,245,o),
(-100,179,o),
(-100,53,cs),
(-100,-50,o),
(-4,-85,o),
(74,-85,cs),
(300,-85,o),
(487,9,o),
(567,86,cs),
(710,222,o),
(794,679,o),
(888,810,cs),
(927,864,o),
(1022,932,o),
(1022,932,c),
(1022,932,o),
(748,858,o),
(638,765,cs)
);
},
{
closed = 1;
nodes = (
(756,744,o),
(794,785,o),
(817,796,cs),
(834,804,o),
(783,684,o),
(698,456,cs),
(594,179,o),
(558,148,o),
(538,136,cs),
(517,123,o),
(569,247,o),
(651,465,cs)
);
},
{
closed = 1;
nodes = (
(494,1001,o),
(338,837,o),
(338,752,cs),
(338,685,o),
(458,682,o),
(458,682,c),
(458,682,o),
(402,714,o),
(402,761,cs),
(402,852,o),
(474,889,o),
(567,889,cs),
(632,889,o),
(665,880,o),
(728,880,cs),
(831,880,o),
(961,928,o),
(1031,963,cs),
(1130,1012,o),
(1168,1062,o),
(1168,1062,c),
(1168,1062,o),
(1102,1032,o),
(1032,1013,cs),
(984,1000,o),
(921,1001,o),
(837,1001,cs)
);
},
{
pos = (647,258);
ref = ".I-dot";
},
{
pos = (722,463);
ref = ".I-dot";
}
);
width = 1018;
}
);
unicode = (73,105);
},
{
glyphname = J;
lastChange = "2024-03-27 13:43:47 +0000";
layers = (
{
layerId = m01;
shapes = (
{
closed = 1;
nodes = (
(718,1100,o),
(426,970,o),
(378,500,cs),
(325,-17,o),
(218,-100,o),
(218,-100,c),
(218,-100,o),
(495,32,o),
(538,500,cs),
(586,1020,o),
(718,1100,o),
(718,1100,c)
);
},
{
closed = 1;
nodes = (
(150,244,l),
(647,244,l),
(677,314,l),
(180,314,l)
);
}
);
width = 868;
}
);
unicode = (74,106);
},
{
glyphname = L;
lastChange = "2024-03-27 13:43:55 +0000";
layers = (
{
backgroundImage = {
imagePath = "解包/L.png";
pos = (38,-79);
scale = (24.6279,24.6279);
};
layerId = m01;
shapes = (
{
closed = 1;
nodes = (
(321,1018,o),
(234,938,o),
(157,745,cs),
(98,596,o),
(34,426,o),
(54,348,c),
(251,727,o),
(276,912,o),
(498,912,cs),
(579,912,o),
(634,898,o),
(714,898,cs),
(835,898,o),
(1039,998,o),
(1087,1069,c),
(988,1054,o),
(900,998,o),
(767,998,cs),
(679,998,o),
(628,1018,o),
(491,1018,cs)
);
},
{
closed = 1;
nodes = (
(336,727,o),
(178,717,o),
(54,348,c),
(208,606,o),
(318,680,o),
(491,575,c),
(529,668,l)
);
},
{
closed = 1;
nodes = (
(246,149,o),
(175,48,o),
(161,-80,c),
(217,-39,o),
(270,-10,o),
(344,6,cs),
(419,22,o),
(485,17,o),
(556,45,cs),
(640,78,o),
(726,147,o),
(745,250,c),
(693,211,o),
(633,174,o),
(565,155,cs),
(497,136,o),
(441,149,o),
(342,149,c)
);
},
{
closed = 1;
nodes = (
(217,20,l),
(511,90,l),
(825,964,l),
(555,964,l)
);
},
{
closed = 1;
nodes = (
(748,931,l),
(454,110,l),
(415,110,l),
(706,931,l)
);
}
);
width = 937;
}
);
unicode = (76,108);
},
{
glyphname = M;
lastChange = "2024-03-27 13:43:58 +0000";
layers = (
{
layerId = m01;
shapes = (
{
closed = 1;
nodes = (
(475,1021,o),
(245,936,o),
(179,874,c),
(250,901,o),
(355,939,o),
(398,939,cs),
(441,939,o),
(542,913,o),
(591,913,cs),
(656,913,o),
(871,964,o),
(937,1044,c),
(883,1016,o),
(827,985,o),
(769,985,cs),
(711,985,o),
(602,1021,o),
(549,1021,c)
);
},
{
closed = 1;
nodes = (
(150,94,o),
(-34,29,o),
(-100,-32,c),
(-39,0,o),
(24,20,o),
(80,20,cs),
(167,20,o),
(201,-22,o),
(266,-22,cs),
(343,-22,o),
(480,61,o),
(561,61,cs),
(650,61,o),
(670,-12,o),
(781,-12,cs),
(849,-12,o),
(1016,48,o),
(1050,93,cs),
(1082,134,o),
(1155,365,o),
(1155,392,cs),
(1155,417,o),
(1145,432,o),
(1131,432,cs),
(1117,432,o),
(1110,417,o),
(1110,391,cs),
(1110,375,o),
(1086,298,o),
(1058,218,cs),
(1030,138,o),
(1003,55,o),
(930,55,cs),
(831,55,o),
(798,128,o),
(711,128,cs),
(600,128,o),
(490,46,o),
(386,46,cs),
(307,46,o),
(269,94,o),
(205,94,c)
);
},
{
pos = (738,538);
ref = .dot;
},
{
closed = 1;
nodes = (
(80,37,l),
(329,37,l),
(680,979,l),
(431,979,l)
);
},
{
closed = 1;
nodes = (
(624,959,l),
(284,51,l),
(242,51,l),
(582,959,l)
);
},
{
closed = 1;
nodes = (
(804,52,l),
(903,308,ls),
(917,344,o),
(886,381,o),
(808,381,cs),
(718,381,o),
(581,335,o),
(383,248,c),
(369,220,l),
(369,220,o),
(539,301,o),
(650,306,cs),
(698,308,o),
(745,291,o),
(727,242,cs),
(668,82,l)
);
}
);
width = 1215;
}
);
unicode = (77,109);
},
{
glyphname = N;
lastChange = "2024-03-27 13:44:02 +0000";
layers = (
{
layerId = m01;
shapes = (
{
closed = 1;
nodes = (
(272,1020,o),
(166,1000,o),
(127,960,c),
(127,960,o),
(222,976,o),
(411,976,cs),
(440,976,o),
(450,956,o),
(440,929,cs),
(291,532,l),
(368,591,l),
(497,936,ls),
(521,1000,o),
(501,1020,o),
(437,1020,cs)
);
},
{
closed = 1;
nodes = (
(13,319,ls),
(-23,222,o),
(21,178,o),
(93,178,cs),
(165,178,o),
(249,256,o),
(271,294,c),
(244,274,o),
(204,252,o),
(168,252,cs),
(132,252,o),
(105,280,o),
(105,312,cs),
(105,344,o),
(135,377,o),
(177,411,cs),
(797,913,ls),
(849,955,o),
(889,939,o),
(862,859,cs),
(630,163,ls),
(609,101,o),
(593,83,o),
(532,48,cs),
(500,30,o),
(450,0,o),
(402,-19,c),
(644,-19,o),
(992,341,o),
(992,723,cs),
(992,1026,o),
(860,1027,o),
(770,954,cs),
(228,516,l),
(407,997,l),
(266,997,l)
);
},
{
pos = (469,346);
ref = ".T-doth";
}
);
width = 1072;
}
);
unicode = (78,110);
},
{
glyphname = O;
lastChange = "2024-03-27 13:44:21 +0000";
layers = (
{
layerId = m01;
shapes = (
{
closed = 1;
nodes = (
(590,1021,o),
(118,853,o),
(118,491,cs),
(118,308,o),
(226,227,o),
(364,227,cs),
(523,227,o),
(703,397,o),
(694,424,c),
(694,424,o),
(523,309,o),
(441,309,cs),
(359,309,o),
(272,424,o),
(272,544,cs),
(272,793,o),
(551,959,o),
(639,959,cs),
(710,959,o),
(725,940,o),
(812,940,cs),
(902,940,o),
(950,1000,o),
(958,1030,c),
(958,1030,o),
(878,998,o),
(821,998,cs),
(788,998,o),
(766,1021,o),
(725,1021,cs)
);
},
{
closed = 1;
nodes = (
(700,821,l),
(700,821,o),
(715,829,o),
(756,829,cs),
(812,829,o),
(926,774,o),
(926,644,cs),
(926,541,o),
(875,442,o),
(803,355,cs),
(685,213,o),
(508,106,o),
(402,75,c),
(582,75,o),
(756,174,o),
(882,300,cs),
(1005,422,o),
(1084,569,o),
(1084,679,cs),
(1084,830,o),
(945,907,o),
(808,907,cs),
(725,907,o),
(674,891,o),
(674,891,c),
(403,269,l),
(457,270,l)
);
},
{
closed = 1;
nodes = (
(331,133,o),
(93,66,o),
(20,1,c),
(118,27,o),
(235,58,o),
(342,58,cs),
(455,58,o),
(514,-20,o),
(638,-20,cs),
(778,-20,o),
(962,73,o),
(973,102,c),
(921,89,o),
(864,64,o),
(778,64,cs),
(665,64,o),
(643,133,o),
(515,133,cs)
);
}
);
width = 1184;
}
);
unicode = (79,111);
},
{
glyphname = P;
lastChange = "2024-03-27 13:44:25 +0000";
layers = (
{
layerId = m01;
shapes = (
{
closed = 1;
nodes = (
(362,1019,o),
(208,946,o),
(116,877,c),
(199,916,o),
(289,939,o),
(385,939,cs),
(495,939,o),
(515,873,o),
(693,873,cs),
(926,873,o),
(1184,984,o),
(1283,1046,c),
(1283,1046,o),
(999,946,o),
(868,946,cs),
(760,946,o),
(670,1019,o),
(507,1019,cs)
);
},
{
closed = 1;
nodes = (
(443,979,l),
(279,628,ls),
(226,514,o),
(264,387,o),
(480,387,cs),
(704,387,l),
(745,500,l),
(667,473,o),
(592,456,o),
(509,456,cs),
(418,456,o),
(391,510,o),
(434,604,cs),
(591,950,l)
);
},
{
closed = 1;
nodes = (
(634,931,l),
(408,430,l),
(468,430,l),
(694,931,l)
);
},
{
closed = 1;
nodes = (
(504,123,ls),
(467,42,o),
(387,20,o),
(287,20,cs),
(187,20,o),
(99,82,o),
(99,162,cs),
(99,264,o),
(171,287,o),
(264,303,c),
(234,337,o),
(50,345,o),
(50,163,cs),
(50,45,o),
(164,-21,o),
(315,-21,cs),
(480,-21,o),
(610,8,o),
(660,116,cs),
(1046,959,l),
(870,915,l)
);
},
{
pos = (764,236);
ref = .dot;
},
{
pos = (884,501);
ref = .dot;
}
);
width = 1283;
}
);
unicode = (80,112);
},
{
glyphname = R;
lastChange = "2024-03-27 13:44:28 +0000";
layers = (
{
backgroundImage = {
imagePath = "解包/R.jpg";
pos = (33,-15);
scale = (23.4,23.4);
};
layerId = m01;
shapes = (
{
closed = 1;
nodes = (
(348,1018,o),
(252,851,o),
(324,730,c),
(335,863,o),
(420,914,o),
(483,914,cs),
(589,914,o),
(628,868,o),
(714,868,cs),
(950,868,o),
(1301,969,o),
(1384,1090,c),
(1268,1034,o),
(1037,958,o),
(887,958,cs),
(762,958,o),
(720,1018,o),
(578,1018,c)
);
},
{
closed = 1;
nodes = (
(693,326,ls),
(636,175,o),
(583,76,o),
(404,76,cs),
(273,76,o),
(231,137,o),
(231,209,cs),
(231,337,o),
(348,469,o),
(533,469,cs),
(718,469,o),
(786,354,o),
(971,354,cs),
(1092,354,o),
(1153,384,o),
(1164,461,c),
(1116,426,o),
(1082,416,o),
(988,416,cs),
(762,416,o),
(753,532,o),
(533,532,cs),
(273,532,o),
(30,329,o),
(30,159,cs),
(30,1,o),
(148,-18,o),
(260,-18,cs),
(373,-18,o),
(598,34,o),
(729,104,cs),
(784,133,o),
(808,157,o),
(825,203,cs),
(1102,964,l),
(923,932,l)
);
},
{
closed = 1;
nodes = (
(451,742,o),
(347,720,o),
(347,676,cs),
(347,641,o),
(420,602,o),
(444,602,cs),
(468,602,o),
(556,671,o),
(641,671,cs),
(726,671,o),
(839,613,o),
(916,571,c),
(868,652,o),
(799,742,o),
(553,742,cs)
);
}
);
width = 1234;
}
);
unicode = (82,114);
},
{
glyphname = S;
lastChange = "2024-03-27 13:44:31 +0000";
layers = (
{
layerId = m01;
shapes = (
{
closed = 1;
nodes = (
(488,1016,o),
(321,912,o),
(321,769,cs),
(321,708,o),
(367,706,o),
(367,706,c),
(367,706,o),
(360,725,o),
(360,765,cs),
(360,873,o),
(457,932,o),
(556,932,cs),
(642,932,o),
(660,904,o),
(797,904,cs),
(1078,904,o),
(1425,1051,o),
(1416,1069,c),
(1416,1069,o),
(1133,982,o),
(939,982,cs),
(830,982,o),
(783,1016,o),
(672,1016,cs)
);
},
{
closed = 1;
nodes = (
(812,437,o),
(710,609,o),
(503,609,cs),
(209,609,o),
(30,376,o),
(30,177,cs),
(30,70,o),
(83,-20,o),
(127,-20,cs),
(171,-20,o),
(292,53,o),
(374,53,cs),
(456,53,o),
(493,-19,o),
(613,-19,cs),
(783,-19,o),
(1117,149,o),
(1103,185,cs),
(1090,217,o),
(837,63,o),
(759,63,cs),
(681,63,o),
(610,144,o),
(519,144,cs),
(428,144,o),
(279,56,o),
(161,56,c),
(323,529,l),
(353,558,o),
(427,566,o),
(478,566,cs),
(717,566,o),
(759,389,o),
(812,389,c)
);
},
{
closed = 1;
nodes = (
(209,237,o),
(289,297,o),
(343,297,cs),
(398,297,o),
(424,267,o),
(444,267,cs),
(464,267,o),
(584,323,o),
(584,358,cs),
(584,384,o),
(523,427,o),
(449,427,cs),
(325,427,o),
(202,289,o),
(117,172,c)
);
},
{
closed = 1;
nodes = (
(636,560,l),
(812,389,l),
(1037,954,l),
(787,954,l)
);
},
{
closed = 1;
nodes = (
(973,936,l),
(789,428,l),
(759,466,l),
(931,936,l)
);
}
);
width = 1236;
}
);
unicode = (83,115);
},
{
glyphname = T;
lastChange = "2024-03-27 13:44:35 +0000";
layers = (
{
layerId = m01;
shapes = (
{
closed = 1;
nodes = (
(332,976,o),
(180,905,o),
(180,756,cs),
(180,679,o),
(215,658,o),
(281,658,c),
(281,658,o),
(246,695,o),
(246,768,cs),
(246,828,o),
(291,866,o),
(408,866,cs),
(525,866,o),
(592,849,o),
(672,849,cs),
(867,849,o),
(1107,943,o),
(1135,1025,c),
(1034,978,o),
(941,952,o),
(818,952,cs),
(702,952,o),
(624,976,o),
(506,976,c)
);
},
{
closed = 1;
nodes = (
(171,192,o),
(40,129,o),
(-50,47,c),
(5,71,o),
(110,100,o),
(215,100,cs),
(363,100,o),
(467,12,o),
(701,12,cs),
(935,12,o),
(1185,111,o),
(1185,270,cs),
(1185,361,o),
(1123,398,o),
(1049,398,cs),
(975,398,o),
(854,356,o),
(805,271,c),
(805,271,o),
(877,291,o),
(919,291,cs),
(969,291,o),
(995,253,o),
(995,199,cs),
(995,145,o),
(932,100,o),
(867,100,cs),
(686,100,o),
(599,192,o),
(376,192,c)
);
},
{
closed = 1;
nodes = (
(260,131,l),
(527,131,l),
(844,903,l),
(577,903,l)
);
},
{
closed = 1;
nodes = (
(772,881,l),
(480,161,l),
(438,161,l),
(730,881,l)
);
},
{
pos = (200,372);
ref = ".T-doth";
}
);
width = 1265;
}
);
unicode = (84,116);
},
{
glyphname = U;
lastChange = "2024-03-27 13:44:38 +0000";
layers = (
{
layerId = m01;
shapes = (
{
closed = 1;
nodes = (
(359,977,o),
(169,871,o),
(114,820,c),
(203,848,o),
(277,878,o),
(332,878,cs),
(389,878,o),
(437,861,o),
(521,861,cs),
(665,861,o),
(810,896,o),
(848,896,cs),
(924,896,o),
(1014,846,o),
(1014,707,cs),
(1014,496,o),
(765,160,o),
(572,116,c),
(974,106,o),
(1210,552,o),
(1210,759,cs),
(1210,944,o),
(1123,983,o),
(1014,983,cs),
(905,983,o),
(805,945,o),
(715,945,cs),
(643,945,o),
(597,977,o),
(510,977,cs)
);
},
{
closed = 1;
nodes = (
(684,751,ls),
(684,670,o),
(590,603,o),
(518,564,cs),
(446,525,o),
(176,395,o),
(193,366,cs),
(210,337,o),
(474,470,o),
(545,508,cs),
(616,546,o),
(741,631,o),
(741,754,cs),
(741,908,l),
(684,908,l)
);
},
{
closed = 1;
nodes = (
(453,495,l),
(641,609,l),
(641,908,l),
(456,908,l)
);
},
{
closed = 1;
nodes = (
(389,189,o),
(114,114,o),
(30,26,c),
(139,51,o),
(277,87,o),
(401,87,cs),
(562,87,o),
(652,33,o),
(800,33,cs),
(994,33,o),
(1161,77,o),
(1223,158,c),
(1147,133,o),
(1079,114,o),
(973,114,cs),
(844,114,o),
(763,189,o),
(568,189,c)
);
}
);
width = 1323;
}
);
unicode = (85,117);
},
{
glyphname = V;
lastChange = "2024-03-27 13:44:41 +0000";
layers = (
{
layerId = m01;
shapes = (
{
closed = 1;
nodes = (
(63,189,o),
(-18,151,o),
(-100,85,c),
(-20,125,o),
(58,125,o),
(142,125,cs),
(223,125,o),
(264,106,o),
(341,106,cs),
(500,106,o),
(550,183,o),
(630,272,c),
(472,189,o),
(401,189,o),
(224,189,cs)
);
},
{
pos = (515,811);
ref = .dot;
},
{
pos = (678,495);
ref = .dot;
},
{
closed = 1;
nodes = (
(374,735,o),
(225,698,o),
(130,635,c),
(236,660,o),
(451,670,o),
(479,670,cs),
(507,670,o),
(518,659,o),
(505,624,cs),
(331,148,l),
(386,148,l),
(582,677,ls),
(598,719,o),
(560,735,o),
(500,735,c)
);
},
{
closed = 1;
nodes = (
(129,154,l),
(296,154,l),
(490,690,l),
(323,690,l)
);
}
);
width = 1119;
}
);
unicode = (86,118);
},
{
glyphname = W;
lastChange = "2024-03-27 13:44:44 +0000";
layers = (
{
layerId = m01;
shapes = (
{
closed = 1;
nodes = (
(835,1020,o),
(767,879,o),
(618,382,c),
(741,671,o),
(835,843,o),
(913,896,cs),
(974,937,o),
(1039,936,o),
(1190,927,cs),
(1387,915,o),
(1570,998,o),
(1647,1073,c),
(1581,1053,o),
(1455,997,o),
(1348,997,cs),
(1249,997,o),
(1162,1020,o),
(1047,1020,c)
);
},
{
closed = 1;
nodes = (
(819,683,o),
(721,671,o),
(618,382,c),
(707,548,o),
(885,619,o),
(1059,578,c),
(1094,677,l)
);
},
{
closed = 1;
nodes = (
(1081,258,ls),
(1062,207,o),
(1044,171,o),
(974,135,cs),
(904,99,o),
(770,41,o),
(696,41,cs),
(622,41,o),
(532,102,o),
(432,102,cs),
(332,102,o),
(124,40,o),
(50,-5,c),
(116,14,o),
(217,44,o),
(268,44,cs),
(348,44,o),
(470,-20,o),
(571,-20,cs),
(757,-20,o),
(1018,100,o),
(1066,146,cs),
(1109,188,o),
(1116,215,o),
(1129,250,cs),
(1391,972,l),
(1341,972,l)
);
},
{
closed = 1;
nodes = (
(801,42,l),
(979,115,l),
(1289,974,l),
(1143,974,l)
);
},
{
closed = 1;
nodes = (
(365,751,o),
(355,491,o),
(300,387,cs),
(245,283,o),
(156,246,o),
(108,211,c),
(174,210,o),
(323,255,o),
(408,368,cs),
(493,481,o),
(487,674,o),
(547,806,cs),
(607,938,o),
(705,1007,o),
(788,1053,c),
(696,1028,o),
(533,967,o),
(462,876,cs)
);
},
{
pos = (142,477);
ref = ".T-doth";
}
);
width = 1527;
}
);
unicode = (87,119);
},
{
glyphname = X;
lastChange = "2024-03-27 13:44:47 +0000";
layers = (
{
layerId = m01;
shapes = (
{
closed = 1;
nodes = (
(263,1022,o),
(184,887,o),
(184,800,cs),
(184,739,o),
(218,711,o),
(250,711,cs),
(282,711,o),
(295,733,o),
(295,764,cs),
(295,800,o),
(243,823,o),
(286,871,cs),
(330,920,o),
(407,862,o),
(499,862,cs),
(688,862,o),
(843,1000,o),
(843,1076,c),
(793,1034,o),
(726,995,o),
(642,995,cs),
(567,995,o),
(540,1022,o),
(454,1022,c)
);
},
{
closed = 1;
nodes = (
(273,754,o),
(185,562,o),
(160,424,c),
(271,532,o),
(354,543,o),
(464,489,c),
(540,689,l)
);
},
{
closed = 1;
nodes = (
(-50,64,o),
(-84,159,o),
(-59,267,c),
(-209,169,o),
(-101,-18,o),
(74,-18,cs),
(261,-18,o),
(482,114,o),
(578,268,cs),
(667,412,o),
(679,579,o),
(700,579,cs),
(723,579,o),
(716,218,o),
(869,71,c),
(1110,71,l),
(1003,219,o),
(938,309,o),
(938,416,cs),
(938,492,o),
(1005,649,o),
(1062,649,cs),
(1105,649,o),
(1139,627,o),
(1170,627,cs),
(1201,627,o),
(1344,711,o),
(1332,730,cs),
(1320,749,o),
(1260,746,o),
(1217,766,cs),
(1174,786,o),
(1141,798,o),
(1116,798,cs),
(974,798,o),
(945,608,o),
(920,608,cs),
(869,608,o),
(951,789,o),
(774,789,cs),
(676,789,o),
(627,643,o),
(592,480,cs),
(571,382,o),
(526,306,o),
(487,273,c),
(627,793,o),
(717,854,o),
(866,937,c),
(774,974,o),
(519,886,o),
(407,607,cs),
(295,327,o),
(308,64,o),
(89,64,c)
);
},
{
closed = 1;
nodes = (
(659,147,o),
(489,83,o),
(400,2,c),
(473,32,o),
(542,48,o),
(612,48,cs),
(711,48,o),
(798,-17,o),
(943,-17,cs),
(1048,-17,o),
(1304,65,o),
(1364,204,c),
(1274,154,o),
(1217,111,o),
(1104,111,cs),
(991,111,o),
(936,147,o),
(829,147,cs)
);
}
);
width = 1414;
}
);
unicode = (88,120);
},
{
glyphname = zero;
lastChange = "2024-10-19 09:45:42 +0000";
layers = (
{
layerId = m01;
shapes = (
{
closed = 1;
nodes = (
(60,89,o),
(176,-20,o),
(260,-20,cs),
(305,-20,o),
(387,26,o),
(459,62,cs),
(512,89,o),
(561,103,o),
(580,121,cs),
(631,171,o),
(851,951,o),
(851,951,c),
(806,945,l),
(806,945,o),
(578,192,o),
(545,163,cs),
(489,115,o),
(408,94,o),
(326,94,cs),
(254,94,o),
(196,158,o),
(196,260,cs),
(196,377,o),
(280,618,o),
(329,691,cs),
(386,774,o),
(549,879,o),
(696,879,cs),
(817,879,o),
(1046,925,o),
(1127,1053,c),
(1083,1032,o),
(1027,1015,o),
(968,1012,cs),
(913,1010,o),
(876,1021,o),
(794,1021,cs),
(648,1021,o),
(60,835,o),
(60,259,c)
);
},
{
closed = 1;
nodes = (
(366,60,l),
(488,100,l),
(770,947,l),
(655,939,l)
);
},
{
closed = 1;
nodes = (
(2,443,o),
(-106,378,o),
(-150,290,c),
(-91,326,o),
(-33,372,o),
(17,372,cs),
(67,372,o),
(86,343,o),
(135,343,cs),
(207,343,o),
(368,459,o),
(511,459,cs),
(642,459,o),
(603,347,o),
(730,347,cs),
(797,347,o),
(966,475,o),
(1001,552,c),
(923,493,o),
(838,448,o),
(752,448,cs),
(626,448,o),
(639,548,o),
(565,548,cs),
(471,548,o),
(300,418,o),
(198,418,cs),
(135,418,o),
(113,443,o),
(70,443,cs)
);
}
);
width = 1027;
}
);
unicode = 48;
},
{
glyphname = one;
lastChange = "2024-10-19 09:45:45 +0000";
layers = (
{
layerId = m01;
shapes = (
{
closed = 1;
nodes = (
(278,856,o),
(135,851,o),
(58,748,c),
(262,862,o),
(321,754,o),
(461,828,cs),
(527,863,o),
(575,937,o),
(575,903,cs),
(575,869,o),
(373,76,o),
(373,76,c),
(417,61,l),
(417,61,o),
(630,940,o),
(642,996,cs),
(656,1061,o),
(607,1056,o),
(562,1022,cs),
(517,988,o),
(453,917,o),
(387,894,cs)
);
},
{
closed = 1;
nodes = (
(544,943,l),
(394,837,l),
(210,89,l),
(334,89,l)
);
},
{
pos = (-70,0);
ref = .tail;
}
);
width = 891;
}
);
unicode = 49;
},
{
glyphname = two;
lastChange = "2024-10-19 09:45:48 +0000";
layers = (
{
layerId = m01;
shapes = (
{
pos = (-70,7);
ref = .tail;
scale = (1.3421,1.3421);
},
{
closed = 0;
nodes = (
(135,767,l)
);
},
{
closed = 1;
nodes = (
(618,1020,o),
(559,991,o),
(476,958,cs),
(347,907,o),
(233,861,o),
(233,643,cs),
(233,511,o),
(298,544,o),
(361,599,cs),
(424,654,o),
(556,712,o),
(578,682,cs),
(606,643,o),
(715,703,o),
(674,753,cs),
(627,810,o),
(461,665,o),
(388,665,cs),
(361,665,o),
(354,693,o),
(354,737,cs),
(354,810,o),
(389,865,o),
(493,910,cs),
(597,955,o),
(663,968,o),
(730,899,cs),
(747,881,o),
(769,847,o),
(760,816,cs),
(707,643,o),
(454,327,o),
(317,133,c),
(454,133,l),
(819,719,l),
(841,690,l),
(495,133,l),
(535,133,l),
(662,349,o),
(904,670,o),
(904,790,cs),
(904,897,o),
(826,1020,o),
(716,1020,cs)
);
}
);
width = 1186;
}
);
unicode = 50;
},
{
glyphname = three;
lastChange = "2024-10-20 09:33:50 +0000";
layers = (
{
layerId = m01;
shapes = (
{
closed = 1;
nodes = (
(586,1020,o),
(479,915,o),
(457,915,cs),
(435,915,o),
(408,947,o),
(375,947,cs),
(334,947,o),
(196,874,o),
(105,782,c),
(196,827,o),
(261,857,o),
(304,857,cs),
(340,857,o),
(364,837,o),
(389,837,cs),
(453,837,o),
(508,903,o),
(571,903,cs),
(670,903,o),
(727,863,o),
(727,794,cs),
(727,679,o),
(493,637,o),
(174,509,c),
(301,524,o),
(405,527,o),
(519,527,cs),
(597,527,o),
(634,480,o),
(634,436,cs),
(634,348,o),
(575,54,o),
(411,54,cs),
(313,54,o),
(240,68,o),
(240,149,cs),
(240,222,o),
(298,277,o),
(344,277,cs),
(395,277,o),
(457,222,o),
(558,343,c),
(528,323,o),
(497,314,o),
(448,314,cs),
(399,314,o),
(377,340,o),
(320,340,cs),
(186,340,o),
(70,286,o),
(70,149,cs),
(70,42,o),
(178,-19,o),
(275,-19,cs),
(372,-19,o),
(434,3,o),
(508,33,cs),
(560,54,o),
(611,51,o),
(654,83,cs),
(696,114,o),
(772,443,o),
(772,507,cs),
(772,571,o),
(720,618,o),
(650,618,c),
(814,668,o),
(878,750,o),
(878,951,cs),
(878,1000,o),
(834,1020,o),
(750,1020,c)
);
},
{
closed = 1;
nodes = (
(216,36,l),
(269,36,l),
(425,298,l),
(372,298,l)
);
}
);
width = 928;
}
);
unicode = 51;
},
{
glyphname = four;
lastChange = "2024-10-19 09:45:57 +0000";
layers = (
{
layerId = m01;
shapes = (
{
closed = 1;
nodes = (
(502,1020,o),
(441,972,o),
(269,796,cs),
(151,675,o),
(60,583,o),
(60,505,cs),
(60,427,o),
(113,394,o),
(220,394,cs),
(327,394,o),
(443,432,o),
(550,463,c),
(284,446,o),
(234,474,o),
(234,558,cs),
(234,611,o),
(262,689,o),
(318,751,cs),
(472,924,o),
(506,950,o),
(615,950,cs),
(682,950,o),
(703,929,o),
(780,929,cs),
(878,929,o),
(976,971,o),
(1044,1021,c),
(986,995,o),
(947,993,o),
(880,993,cs),
(813,993,o),
(760,1020,o),
(678,1020,c)
);
},
{
pos = (638,465);
ref = .dot;
scale = (0.6993,0.6993);
},
{
closed = 1;
nodes = (
(149,95,o),
(50,56,o),
(-80,-42,c),
(41,9,o),
(113,26,o),
(253,26,cs),
(371,26,o),
(426,-19,o),
(549,-19,cs),
(641,-19,o),
(781,20,o),
(959,120,c),
(844,83,o),
(759,53,o),
(646,53,cs),
(533,53,o),
(437,95,o),
(314,95,c)
);
},
{
closed = 1;
nodes = (
(746,982,l),
(616,982,l),
(360,52,l),
(490,52,l)
);
}
);
width = 1044;
}
);
unicode = 52;
},
{
glyphname = five;
lastChange = "2024-10-27 10:22:40 +0000";
layers = (
{
layerId = m01;
shapes = (
{
closed = 1;
nodes = (
(190,1018,o),
(83,886,o),
(83,809,cs),
(83,750,o),
(151,741,o),
(228,747,c),
(171,756,o),
(137,785,o),
(137,819,cs),
(137,889,o),
(252,928,o),
(318,928,cs),
(453,928,o),
(528,853,o),
(669,853,cs),
(872,853,o),
(1005,951,o),
(1102,1085,c),
(1027,1020,o),
(962,965,o),
(767,965,cs),
(572,965,o),
(514,1018,o),
(384,1018,c)
);
},
{
closed = 1;
nodes = (
(290,448,l),
(334,487,o),
(431,513,o),
(538,513,cs),
(694,513,o),
(723,469,o),
(653,259,cs),
(602,108,o),
(567,44,o),
(480,45,cs),
(393,46,o),
(383,119,o),
(280,119,cs),
(177,119,o),
(62,81,o),
(-100,-54,c),
(11,7,o),
(96,48,o),
(175,48,cs),
(254,48,o),
(259,-20,o),
(359,-20,cs),
(473,-20,o),
(532,3,o),
(586,21,cs),
(643,40,o),
(710,45,o),
(773,90,cs),
(844,139,o),
(888,224,o),
(888,309,cs),
(888,449,o),
(804,641,o),
(466,551,c),
(604,946,l),
(476,946,l)
);
},
{
closed = 1;
nodes = (
(506,532,l),
(551,532,l),
(674,892,l),
(629,892,l)
);
}
);
width = 1002;
}
);
unicode = 53;
},
{
glyphname = six;
lastChange = "2024-10-20 09:43:04 +0000";
layers = (
{
layerId = m01;
shapes = (
{
closed = 1;
nodes = (
(555,1020,o),
(411,985,o),
(345,787,cs),
(76,-20,l),
(581,-20,o),
(916,122,o),
(916,398,cs),
(916,555,o),
(689,588,o),
(446,588,cs),
(173,588,o),
(-28,497,o),
(30,444,cs),
(71,406,o),
(173,535,o),
(427,535,cs),
(681,535,o),
(786,436,o),
(786,356,cs),
(786,258,o),
(713,91,o),
(269,91,c),
(505,771,ls),
(549,899,o),
(590,939,o),
(720,939,cs),
(829,939,o),
(911,867,o),
(911,828,cs),
(911,798,o),
(787,744,o),
(689,721,c),
(754,668,o),
(997,742,o),
(997,865,cs),
(997,968,o),
(821,1020,o),
(713,1020,cs)
);
},
{
closed = 1;
nodes = (
(297,48,l),
(364,48,l),
(688,967,l),
(621,967,l)
);
}
);
width = 1027;
}
);
unicode = 54;
},
{
glyphname = seven;
lastChange = "2024-10-27 11:33:04 +0000";
layers = (
{
layerId = m01;
shapes = (
{
closed = 1;
nodes = (
(150,1021,o),
(0,888,o),
(0,811,cs),
(0,734,o),
(173,758,o),
(231,847,c),
(189,824,o),
(88,810,o),
(88,854,cs),
(88,898,o),
(160,926,o),
(217,926,cs),
(315,926,o),
(406,877,o),
(571,877,cs),
(768,877,o),
(933,970,o),
(1003,1073,c),
(933,1029,o),
(756,965,o),
(617,965,cs),
(495,965,o),
(468,1021,o),
(356,1021,cs)
);
},
{
closed = 1;
nodes = (
(209,92,o),
(143,35,o),
(90,-98,c),
(160,-7,o),
(250,22,o),
(297,31,cs),
(344,40,o),
(477,42,o),
(542,57,cs),
(624,76,o),
(747,126,o),
(788,256,c),
(745,204,o),
(681,169,o),
(601,143,cs),
(513,115,o),
(375,148,o),
(291,120,cs)
);
},
{
closed = 1;
nodes = (
(210,43,l),
(375,92,l),
(686,928,l),
(536,928,l)
);
},
{
closed = 1;
nodes = (
(425,92,l),
(472,92,l),
(783,928,l),
(736,928,l)
);
}
);
width = 933;
}
);
unicode = 55;
},
{
glyphname = eight;
lastChange = "2024-10-27 10:49:28 +0000";
layers = (
{
layerId = m01;
shapes = (
{
closed = 1;
nodes = (
(40,-18,l),
(671,-18,o),
(878,226,o),
(878,383,cs),
(878,758,o),
(321,389,o),
(321,664,cs),
(321,716,o),
(358,945,o),
(883,945,c),
(268,57,l),
(323,57,l),
(994,1020,l),
(326,1020,o),
(161,778,o),
(161,640,cs),
(161,303,o),
(716,601,o),
(716,414,cs),
(716,341,o),
(577,114,o),
(271,114,c),
(871,975,l),
(744,975,l)
);
}
);
width = 1034;
}
);
unicode = 56;
},
{
glyphname = nine;
lastChange = "2024-10-27 11:18:29 +0000";
layers = (
{
backgroundImage = {
imagePath = "../../../字体/Font Ainee/枫丹数字/UI_Img_RoleCombatContinueDialog_Number_09.png";
pos = (-484,-118);
scale = (38.3826,38.3826);
};
layerId = m01;
shapes = (
{
closed = 1;
nodes = (
(481,1017,o),
(295,819,o),
(295,603,cs),
(295,404,o),
(666,450,o),
(818,565,c),
(677,519,o),
(390,463,o),
(390,617,cs),
(390,690,o),
(450,783,o),
(509,845,c),
(598,819,o),
(775,845,o),
(861,903,c),
(584,178,ls),
(548,83,o),
(459,33,o),
(376,33,cs),
(270,33,o),
(177,100,o),
(177,184,cs),
(177,297,o),
(358,334,o),
(441,315,c),
(257,404,o),
(100,299,o),
(100,153,cs),
(100,57,o),
(217,-18,o),
(401,-18,cs),
(547,-18,o),
(658,38,o),
(706,159,cs),
(1029,1017,l)
);
},
{
pos = (887,548);
ref = .dot;
scale = (0.8005,0.8005);
}
);
width = 1250;
}
);
unicode = 57;
},
{
export = 0;
glyphname = ".I-dot";
lastChange = "2024-03-27 13:33:08 +0000";
layers = (
{
layerId = m01;
shapes = (
{
closed = 1;
nodes = (
(0,0,l),
(0,0,o),
(224,0,o),
(224,0,c),
(224,0,o),
(230,94,o),
(201,124,cs),
(186,140,o),
(151,146,o),
(119,146,cs),
(77,146,o),
(47,122,o),
(33,86,cs)
);
}
);
width = 225;
}
);
},
{
export = 0;
glyphname = ".T-doth";
lastChange = "2024-03-27 13:33:08 +0000";
layers = (
{
layerId = m01;
shapes = (
{
closed = 1;
nodes = (
(193,271,o),
(17,214,o),
(0,0,c),
(55,88,o),
(165,138,o),
(264,98,c),
(317,217,l)
);
}
);
width = 317;
}
);
},
{
export = 0;
glyphname = .dot;
lastChange = "2024-03-27 13:33:08 +0000";
layers = (
{
layerId = m01;
shapes = (
{
closed = 1;
nodes = (
(175,69,o),
(218,0,o),
(254,0,cs),
(290,0,o),
(386,40,o),
(391,48,cs),
(396,56,o),
(323,151,o),
(282,151,cs),
(241,151,o),
(-9,53,o),
(0,38,c),
(6,28,o),
(72,69,o),
(130,69,cs)
);
}
);
width = 391;
}
);
},
{
export = 0;
glyphname = .tail;
lastChange = "2024-10-19 10:24:09 +0000";
layers = (
{
layerId = m01;
shapes = (
{
closed = 1;
nodes = (
(224,128,o),
(101,81,o),
(0,-19,c),
(122,40,o),
(194,58,o),
(300,58,cs),
(406,58,o),
(461,16,o),
(559,16,cs),
(662,16,o),
(801,63,o),
(840,107,cs),
(920,198,o),
(760,304,o),
(587,145,c),
(853,223,o),
(757,83,o),
(620,83,cs),
(483,83,o),
(475,128,o),
(346,128,c)
);
}
